<?xml version="1.0" standalone="no"?>
<!DOCTYPE svg PUBLIC "-//W3C//DTD SVG 20010904//EN"
 "http://www.w3.org/TR/2001/REC-SVG-20010904/DTD/svg10.dtd">
<svg version="1.0" xmlns="http://www.w3.org/2000/svg"
 width="2000.000000pt" height="2000.000000pt" viewBox="0 0 2000.000000 2000.000000"
 preserveAspectRatio="xMidYMid meet">
<metadata>
Created by potrace 1.11, written by Peter Selinger 2001-2013
</metadata>
<g transform="translate(0.000000,2000.000000) scale(0.100000,-0.100000)"
fill="#000000" stroke="none">
<path d="M9525 17861 c-3 -2 -44 -6 -93 -7 -108 -4 -207 -10 -207 -13 0 -2
-27 -4 -60 -6 -33 -1 -78 -5 -100 -9 -50 -7 -120 -17 -165 -22 -19 -2 -48 -6
-65 -9 -16 -2 -48 -6 -70 -9 -22 -3 -53 -7 -70 -11 -35 -7 -78 -14 -120 -21
-51 -8 -70 -11 -70 -13 0 -1 -11 -4 -25 -6 -14 -2 -36 -6 -50 -9 -54 -11 -76
-16 -105 -23 -16 -3 -37 -7 -45 -9 -8 -1 -26 -5 -40 -9 -14 -3 -41 -9 -60 -12
-19 -3 -39 -8 -45 -12 -5 -4 -23 -8 -39 -9 -16 -1 -35 -7 -42 -13 -8 -6 -14
-9 -14 -6 0 3 -15 0 -34 -8 -18 -8 -36 -12 -39 -9 -3 3 -12 2 -19 -2 -7 -5
-18 -9 -24 -10 -6 -1 -38 -10 -70 -19 -33 -9 -60 -17 -62 -16 -1 1 -18 -5 -37
-13 -19 -8 -35 -12 -35 -9 0 3 -7 0 -15 -7 -8 -7 -15 -9 -15 -5 0 4 -6 3 -12
-3 -7 -6 -16 -11 -21 -11 -20 -2 -63 -15 -72 -22 -5 -4 -12 -7 -15 -7 -7 2
-83 -23 -95 -31 -5 -3 -13 -6 -17 -7 -5 -1 -9 -2 -10 -4 -2 -1 -10 -3 -18 -5
-8 -2 -28 -9 -45 -16 -16 -6 -34 -13 -40 -15 -5 -1 -23 -8 -40 -15 -16 -7 -32
-13 -35 -14 -10 -4 -46 -17 -67 -26 -13 -5 -33 -13 -45 -18 -13 -5 -36 -14
-53 -22 -16 -7 -33 -13 -36 -13 -3 -1 -21 -8 -40 -17 -61 -30 -142 -64 -151
-64 -5 0 -12 -6 -17 -13 -5 -8 -11 -13 -15 -12 -7 2 -78 -30 -176 -79 -98 -49
-295 -153 -305 -161 -5 -4 -32 -20 -60 -35 -86 -47 -220 -130 -223 -137 -2 -5
-8 -8 -13 -8 -9 0 -179 -107 -204 -128 -5 -4 -39 -28 -75 -52 -89 -60 -342
-249 -356 -266 -6 -8 -14 -14 -18 -14 -9 0 -149 -117 -311 -260 -176 -155
-455 -435 -604 -605 -67 -77 -128 -147 -135 -155 -105 -119 -391 -503 -499
-670 -49 -76 -170 -273 -187 -305 -5 -11 -21 -38 -35 -60 -14 -22 -32 -56 -42
-75 -9 -19 -22 -42 -28 -50 -13 -16 -157 -293 -156 -298 1 -1 -19 -44 -43 -95
-25 -50 -46 -99 -48 -107 -2 -8 -7 -18 -11 -21 -5 -3 -9 -12 -11 -20 -1 -8
-12 -33 -24 -56 -12 -24 -20 -43 -17 -43 3 0 -2 -11 -11 -25 -9 -14 -13 -25
-9 -25 4 0 1 -10 -7 -22 -14 -23 -52 -119 -51 -128 1 -3 -2 -9 -7 -15 -4 -5
-13 -28 -20 -50 -7 -22 -16 -45 -21 -51 -5 -6 -11 -21 -13 -35 -3 -13 -5 -25
-7 -26 -1 -2 -2 -6 -3 -10 -1 -5 -7 -18 -14 -30 -7 -13 -10 -23 -6 -23 3 0 1
-7 -6 -15 -7 -8 -9 -15 -5 -15 4 0 3 -6 -3 -13 -6 -7 -13 -24 -16 -39 -2 -14
-9 -36 -16 -47 -6 -12 -8 -21 -5 -21 3 0 1 -9 -5 -21 -6 -11 -14 -30 -16 -42
-3 -12 -6 -26 -7 -32 -2 -5 -6 -15 -9 -21 -4 -6 -10 -24 -13 -40 -10 -47 -10
-48 -18 -61 -5 -7 -6 -13 -3 -13 3 0 -2 -16 -10 -36 -8 -20 -13 -39 -10 -42 3
-3 1 -11 -5 -19 -6 -7 -9 -13 -6 -13 3 0 -3 -25 -13 -56 -11 -30 -19 -59 -19
-62 1 -4 0 -9 -1 -12 -1 -3 -3 -12 -5 -20 -2 -8 -12 -55 -24 -105 -21 -93 -31
-146 -36 -180 -2 -11 -4 -20 -5 -20 -2 0 -4 -9 -6 -20 -8 -46 -16 -92 -19
-115 -2 -14 -4 -25 -5 -25 -2 0 -4 -9 -5 -20 -1 -11 -6 -38 -10 -60 -4 -22 -8
-53 -10 -70 -2 -16 -6 -46 -10 -66 -3 -20 -8 -53 -11 -75 -2 -21 -7 -52 -9
-69 -11 -78 -24 -211 -29 -315 -2 -36 -5 -65 -6 -65 -12 0 -17 -760 -6 -925 3
-52 8 -124 11 -160 3 -36 7 -86 9 -112 1 -27 4 -49 5 -50 2 -2 5 -28 7 -58 8
-93 9 -105 15 -115 3 -5 5 -23 4 -40 -2 -16 0 -34 3 -39 3 -5 6 -23 8 -40 1
-17 5 -44 8 -61 7 -38 16 -93 20 -125 2 -14 5 -25 6 -25 1 0 3 -13 5 -30 4
-32 12 -76 20 -110 2 -11 6 -31 9 -45 4 -24 12 -64 21 -105 3 -11 7 -31 10
-45 4 -14 8 -35 11 -47 2 -12 8 -33 14 -47 5 -13 6 -27 3 -30 -3 -3 -1 -12 5
-19 7 -8 9 -17 6 -20 -3 -3 -2 -12 2 -19 5 -7 10 -24 12 -38 2 -13 7 -30 13
-36 5 -6 6 -14 2 -17 -3 -4 -1 -13 5 -20 7 -8 9 -16 6 -20 -3 -3 0 -16 7 -28
6 -13 13 -30 14 -39 2 -19 15 -70 22 -90 4 -8 7 -18 8 -22 2 -5 4 -10 5 -13 1
-3 4 -9 5 -15 1 -5 3 -11 4 -12 2 -2 4 -14 7 -28 2 -14 7 -32 11 -40 3 -8 8
-24 10 -34 2 -11 8 -25 14 -33 6 -7 9 -13 5 -13 -3 0 0 -17 8 -38 17 -45 24
-65 23 -72 0 -3 10 -25 23 -50 13 -25 22 -45 21 -45 -5 0 46 -142 60 -167 5
-10 9 -22 9 -28 0 -5 13 -37 29 -70 16 -33 27 -60 24 -60 -3 0 1 -10 9 -22 8
-13 25 -50 38 -83 13 -33 28 -63 33 -66 5 -3 8 -9 7 -13 -1 -4 13 -37 31 -74
18 -37 34 -69 35 -72 1 -3 5 -15 9 -28 4 -12 12 -22 18 -22 6 0 8 -3 4 -6 -3
-4 5 -26 18 -49 13 -24 21 -46 18 -49 -4 -3 -2 -6 4 -6 6 0 23 -26 39 -57 15
-32 49 -96 76 -142 26 -46 48 -86 48 -88 0 -3 9 -17 20 -33 11 -15 17 -30 13
-34 -3 -3 -1 -6 6 -6 6 0 16 -10 21 -22 6 -13 16 -32 22 -43 7 -11 30 -46 50
-78 21 -32 38 -61 38 -63 0 -9 212 -319 226 -330 8 -6 14 -14 14 -18 0 -8 168
-230 209 -276 17 -19 31 -38 31 -41 0 -3 10 -17 23 -31 12 -13 45 -51 72 -83
92 -107 119 -138 249 -277 70 -76 196 -203 279 -281 83 -78 171 -161 195 -184
24 -23 45 -41 47 -40 2 1 20 -14 42 -34 21 -19 99 -84 173 -142 163 -129 147
-118 190 -147 19 -14 40 -30 47 -37 30 -27 242 -173 252 -173 6 0 11 -4 11 -8
0 -7 141 -99 208 -137 9 -5 31 -19 47 -30 46 -31 69 -44 85 -52 8 -4 46 -26
85 -50 38 -24 73 -43 78 -43 5 0 21 -9 36 -19 15 -11 34 -21 42 -23 8 -2 19
-10 26 -18 7 -8 13 -12 13 -7 0 4 17 -3 38 -16 39 -24 195 -101 327 -161 44
-21 94 -44 110 -54 17 -9 30 -14 30 -12 0 2 16 -4 35 -12 39 -18 61 -25 74
-26 5 0 12 -4 15 -9 5 -7 94 -46 111 -48 3 0 16 -7 30 -15 14 -7 25 -12 25
-11 0 2 25 -5 55 -17 8 -3 18 -6 22 -6 3 -1 10 -4 14 -8 4 -5 14 -8 23 -8 9 0
28 -6 42 -14 22 -11 39 -17 92 -31 4 -2 9 -4 12 -5 3 -1 8 -3 13 -5 4 -1 16
-5 27 -9 55 -21 91 -34 98 -35 11 -2 20 -4 72 -19 22 -6 42 -11 45 -10 3 1 15
-4 26 -10 12 -6 36 -14 54 -17 18 -3 42 -10 52 -16 11 -6 22 -8 25 -5 4 3 11
2 17 -3 10 -7 87 -28 127 -34 8 -2 19 -5 24 -9 6 -3 26 -9 45 -12 19 -3 52
-10 73 -15 20 -5 37 -7 37 -4 0 3 6 1 13 -5 7 -6 22 -11 32 -11 21 -1 66 -8
75 -12 3 -1 10 -3 15 -4 6 -2 12 -4 15 -5 3 -1 16 -4 30 -6 14 -2 36 -5 50 -8
78 -14 107 -19 125 -22 11 -1 20 -3 20 -5 0 -1 14 -3 30 -4 17 -2 41 -6 55 -9
14 -4 45 -9 70 -12 101 -12 127 -15 165 -18 22 -2 40 -5 40 -6 0 -3 40 -7 126
-13 31 -2 60 -6 65 -9 5 -3 34 -5 64 -3 30 1 60 -1 65 -4 24 -14 775 -19 965
-7 194 13 304 23 355 31 17 3 50 7 75 9 25 2 65 7 90 11 25 4 52 7 60 7 8 0
22 2 30 5 8 3 26 7 40 9 14 2 41 5 60 7 19 3 35 6 35 7 0 1 11 3 25 5 14 2 41
6 60 10 19 3 44 8 55 9 11 2 20 5 20 6 0 1 14 3 30 5 17 1 32 4 35 5 3 1 10 3
15 5 6 1 12 3 15 4 3 2 14 4 25 5 28 3 101 19 123 26 4 1 10 2 14 1 4 0 34 6
65 15 59 15 90 23 108 27 6 2 16 6 23 10 6 5 16 6 20 3 5 -3 20 1 35 9 14 7
28 11 31 8 2 -3 11 -1 18 3 7 5 18 9 23 11 6 1 21 5 35 8 14 3 30 7 35 9 15 3
88 27 105 33 8 4 19 5 24 4 4 -1 14 4 22 10 8 6 14 9 14 5 0 -4 14 0 30 9 17
9 30 14 30 11 0 -2 24 5 53 15 28 11 63 22 77 25 13 3 30 10 36 15 7 6 25 12
40 15 15 3 32 8 38 12 6 4 13 7 16 8 3 0 14 4 25 8 11 4 34 13 50 19 17 5 48
18 70 27 39 17 75 30 85 32 3 1 25 11 50 24 25 12 57 26 73 29 15 4 27 12 27
18 0 6 3 8 6 4 4 -3 19 0 35 9 16 8 31 14 34 14 3 0 35 16 72 35 36 19 81 40
100 46 18 6 33 15 33 21 0 6 3 9 6 5 9 -8 323 156 336 176 4 7 8 9 8 5 0 -4
35 14 78 39 42 25 86 51 97 57 163 89 692 458 798 556 11 11 24 20 27 20 4 0
20 12 37 28 16 15 92 81 169 147 260 224 629 606 851 881 41 52 79 94 84 94 5
0 9 5 9 12 0 6 26 45 58 87 93 121 212 289 212 300 0 5 4 11 8 13 12 5 227
337 245 378 4 8 18 33 32 55 14 22 35 60 47 85 13 25 26 47 29 50 3 3 19 32
36 65 17 33 56 108 87 168 30 59 55 109 54 110 0 1 15 36 35 77 68 146 99 215
101 225 1 6 10 25 19 42 10 18 17 35 17 38 1 7 11 36 30 80 16 36 33 82 35 95
0 3 6 14 12 25 6 11 12 23 12 27 2 11 11 38 31 93 17 47 32 90 36 108 1 4 3 9
4 12 1 3 4 10 5 15 1 6 4 12 5 15 1 3 3 8 5 13 1 4 7 19 13 35 7 15 14 40 17
55 10 44 10 47 16 57 4 6 10 24 14 40 5 17 9 35 11 40 3 12 14 55 17 70 2 6 6
16 10 23 5 6 6 12 3 12 -3 0 -1 12 5 28 6 15 13 35 15 45 5 22 12 51 20 80 3
12 7 29 8 37 1 9 5 21 10 28 4 6 5 16 1 21 -3 5 -1 12 4 16 5 3 10 13 9 23 0
9 3 28 7 42 3 14 8 34 10 45 4 23 12 58 21 95 6 23 8 40 18 110 2 14 5 25 6
25 2 0 4 14 5 30 2 17 4 30 5 30 3 0 6 19 15 75 3 19 8 51 11 70 10 60 25 175
39 295 11 96 22 224 32 375 10 161 5 945 -7 945 -1 0 -4 32 -6 70 -6 100 -15
196 -29 295 -2 19 -7 55 -10 80 -6 48 -11 86 -19 135 -3 17 -8 46 -11 65 -3
19 -7 46 -10 60 -2 14 -6 39 -9 55 -2 17 -7 41 -11 55 -3 14 -8 36 -10 50 -2
14 -6 39 -9 55 -4 17 -9 39 -11 50 -2 11 -7 31 -10 45 -3 14 -8 36 -10 50 -7
36 -13 65 -15 65 -1 0 -3 9 -5 20 -2 11 -6 31 -10 45 -3 14 -8 32 -10 40 -2 8
-4 15 -5 15 -1 0 -3 9 -5 20 -5 31 -12 56 -29 105 -8 25 -18 60 -21 79 -3 19
-9 39 -13 45 -3 6 -7 16 -7 21 0 6 -9 37 -20 70 -10 33 -19 62 -20 65 -2 9
-36 115 -42 130 -4 8 -7 18 -8 23 -2 4 -3 8 -5 10 -1 1 -3 9 -5 17 -5 24 -95
263 -106 284 -6 10 -12 26 -14 36 -2 10 -13 39 -25 66 -12 27 -29 65 -37 84
-93 216 -234 502 -331 673 -37 63 -61 105 -83 145 -12 20 -26 43 -32 51 -12
14 -32 47 -43 71 -14 29 -99 155 -106 158 -5 2 -8 8 -8 14 0 6 -11 26 -25 44
-14 18 -25 35 -25 39 0 6 -11 20 -40 54 -8 9 -22 29 -30 45 -8 15 -25 39 -37
52 -13 14 -23 27 -23 29 0 7 -201 272 -238 315 -17 19 -59 69 -93 110 -246
293 -591 635 -899 891 -182 151 -500 389 -520 389 -4 0 -10 4 -12 9 -3 9 -311
211 -322 211 -3 0 -24 13 -48 29 -24 15 -63 39 -88 52 -25 14 -56 32 -70 41
-40 26 -376 202 -390 203 -3 1 -54 25 -115 54 -60 29 -114 54 -120 56 -5 1
-28 10 -50 20 -22 11 -42 19 -45 20 -3 0 -16 7 -30 15 -14 7 -27 13 -30 13 -3
0 -16 4 -30 10 -14 6 -27 11 -30 12 -3 1 -22 9 -42 18 -21 10 -42 17 -48 17
-6 0 -18 4 -28 9 -22 12 -153 62 -172 66 -8 2 -16 4 -17 5 -2 2 -7 4 -13 5 -5
1 -11 3 -12 5 -2 1 -10 3 -18 5 -8 2 -44 15 -80 28 -36 13 -69 25 -75 27 -5 1
-14 4 -20 5 -18 6 -65 15 -70 15 -3 0 -21 6 -40 14 -20 9 -38 15 -40 16 -3 0
-6 0 -7 1 -2 0 -10 2 -18 4 -19 5 -79 22 -127 36 -21 6 -45 12 -53 13 -8 1
-24 5 -35 9 -11 3 -31 8 -45 11 -14 3 -36 8 -50 11 -67 17 -107 27 -130 30
-14 2 -36 7 -50 10 -40 10 -73 16 -100 20 -14 2 -25 5 -25 6 0 1 -9 3 -20 5
-49 9 -92 15 -115 17 -14 2 -30 6 -36 9 -6 4 -19 5 -30 4 -10 -2 -23 -1 -29 3
-5 3 -21 7 -35 8 -14 1 -41 5 -60 8 -92 13 -118 17 -155 20 -22 2 -40 4 -40 6
0 1 -20 3 -45 4 -25 2 -45 4 -45 5 0 2 -22 5 -50 7 -27 2 -79 6 -115 8 -36 3
-101 8 -145 11 -106 6 -764 11 -770 5z"/>
</g>
</svg>
